<svg xmlns="http://www.w3.org/2000/svg" viewBox="0 0 256 256" role="img" aria-labelledby="title desc">
  <title id="title">Chinese University of Hong Kong, Shenzhen logo</title>
  <desc id="desc">Local placeholder for the CUHK Shenzhen crest.</desc>
  <rect width="256" height="256" rx="24" fill="#ffffff"/>
  <path fill="#6f2a7f" d="M51 35h154c0 84-13 149-77 186C64 184 51 119 51 35z"/>
  <path fill="#e6b12e" d="M65 49h63v159C78 176 66 118 65 49z"/>
  <path d="M128 49h63c-1 69-13 127-63 159z" fill="#6f2a7f"/>
  <path d="M88 70c24 9 37 24 40 47 3 25 26 33 48 21M83 132c16-16 38-17 56-3M157 76c-16 12-24 26-26 44M167 110c-18 11-27 26-29 44" fill="none" stroke="#e6b12e" stroke-width="9" stroke-linecap="round"/>
  <path d="M78 198c34 19 66 19 100 0" fill="none" stroke="#ead9a3" stroke-width="16" stroke-linecap="round"/>
</svg>
